<?xml version="1.0" encoding="UTF-8"?>
<!DOCTYPE svg PUBLIC "-//W3C//DTD SVG 1.1//EN" "http://www.w3.org/Graphics/SVG/1.1/DTD/svg11.dtd">
<svg xmlns="http://www.w3.org/2000/svg" version="1.1" width="146px" height="170px" style="shape-rendering:geometricPrecision; text-rendering:geometricPrecision; image-rendering:optimizeQuality; fill-rule:evenodd; clip-rule:evenodd" xmlns:xlink="http://www.w3.org/1999/xlink">
<g><path style="opacity:1" fill="#050505" d="M 103.5,0.5 C 104.818,3.25751 105.485,6.42418 105.5,10C 105.498,13.3518 105.165,16.5185 104.5,19.5C 83.473,18.8449 62.8063,19.5115 42.5,21.5C 42.3335,33.8378 42.5001,46.1712 43,58.5C 54.7575,59.3225 66.5908,59.8225 78.5,60C 79.642,66.0844 79.8087,72.2511 79,78.5C 60.5734,79.3265 42.0734,79.8265 23.5,80C 29.6667,86.1667 35.8333,92.3333 42,98.5C 42.6667,111.833 42.6667,125.167 42,138.5C 27.9121,139.49 13.7454,139.824 -0.5,139.5C -0.5,133.833 -0.5,128.167 -0.5,122.5C 3.7352,121.564 8.06853,121.231 12.5,121.5C 13.1666,104.837 13.4999,88.0033 13.5,71C 13.4995,53.8198 12.8329,36.9865 11.5,20.5C 8.03808,19.5184 4.37141,19.185 0.5,19.5C 0.5,13.1667 0.5,6.83333 0.5,0.5C 34.8333,0.5 69.1667,0.5 103.5,0.5 Z"/></g>
<g><path style="opacity:0.764" fill="#8c8c8c" d="M -0.5,-0.5 C 34.1667,-0.5 68.8333,-0.5 103.5,-0.5C 103.5,-0.166667 103.5,0.166667 103.5,0.5C 69.1667,0.5 34.8333,0.5 0.5,0.5C 0.5,6.83333 0.5,13.1667 0.5,19.5C 4.37141,19.185 8.03808,19.5184 11.5,20.5C 7.5,20.5 3.5,20.5 -0.5,20.5C -0.5,13.5 -0.5,6.5 -0.5,-0.5 Z"/></g>
<g><path style="opacity:0.458" fill="#898989" d="M 104.5,19.5 C 83.9312,20.1775 63.2646,20.8442 42.5,21.5C 62.8063,19.5115 83.473,18.8449 104.5,19.5 Z"/></g>
<g><path style="opacity:0.502" fill="#7d7d7d" d="M 11.5,20.5 C 12.8329,36.9865 13.4995,53.8198 13.5,71C 13.4999,88.0033 13.1666,104.837 12.5,121.5C 12.8259,87.7602 12.4926,54.0935 11.5,20.5 Z"/></g>
<g><path style="opacity:1" fill="#171717" d="M 145.5,30.5 C 145.5,36.5 145.5,42.5 145.5,48.5C 114.724,50.4806 83.7238,51.1473 52.5,50.5C 52.2729,48.0672 53.2729,46.4006 55.5,45.5C 58.5,44.5 60.5,42.5 61.5,39.5C 64.3325,35.8348 67.6659,32.6682 71.5,30C 96.239,29.1772 120.906,29.3439 145.5,30.5 Z"/></g>
<g><path style="opacity:0.941" fill="#545454" d="M 61.5,39.5 C 60.5,42.5 58.5,44.5 55.5,45.5C 57.1667,43.1667 59.1667,41.1667 61.5,39.5 Z"/></g>
<g><path style="opacity:1" fill="#131313" d="M 142.5,106.5 C 142.427,108.027 143.094,109.027 144.5,109.5C 144.833,109.5 145.167,109.5 145.5,109.5C 145.5,122.5 145.5,135.5 145.5,148.5C 138.135,155.866 130.469,162.866 122.5,169.5C 117.167,169.5 111.833,169.5 106.5,169.5C 105.167,168.167 103.833,168.167 102.5,169.5C 89.1667,169.5 75.8333,169.5 62.5,169.5C 60.5,168.167 58.5,168.167 56.5,169.5C 55.5,169.5 54.5,169.5 53.5,169.5C 51.914,166.297 51.2473,162.797 51.5,159C 51.5413,155.779 51.8747,152.612 52.5,149.5C 73.1559,148.5 93.8226,148.167 114.5,148.5C 114.334,141.825 114.5,135.158 115,128.5C 121.064,122.605 126.897,116.605 132.5,110.5C 133.043,110.44 133.376,110.107 133.5,109.5C 112.511,108.5 91.5106,108.167 70.5,108.5C 64.5353,103.036 58.7019,97.3696 53,91.5C 52.5172,90.552 52.3505,89.552 52.5,88.5C 76.169,88.3334 99.8357,88.5 123.5,89C 130.03,94.6994 136.363,100.533 142.5,106.5 Z"/></g>
<g><path style="opacity:0.548" fill="#737373" d="M 70.5,108.5 C 91.5106,108.167 112.511,108.5 133.5,109.5C 133.376,110.107 133.043,110.44 132.5,110.5C 111.833,109.833 91.1667,109.167 70.5,108.5 Z"/></g>
<g><path style="opacity:0.643" fill="#777777" d="M 142.5,106.5 C 143.906,106.973 144.573,107.973 144.5,109.5C 143.094,109.027 142.427,108.027 142.5,106.5 Z"/></g>
</svg>
